<svg width="405" height="220" viewBox="0 0 405 220" fill="none" xmlns="http://www.w3.org/2000/svg">
<rect width="405" height="219.37" rx="8" fill="#F5F5F5"/>
<rect width="405" height="219" fill="#1C1C1C"/>
<g clip-path="url(#clip0_9222_15874)">
<path d="M200.27 100.502V102.859C198.41 101.046 195.963 99.9574 193.197 99.9574C186.986 99.9574 182.223 105.081 182.223 111.429C182.223 117.776 186.983 122.81 193.197 122.81C195.963 122.81 198.41 121.721 200.27 119.908V122.267H204.713V100.503H200.27V100.502ZM199.256 114.903C197.134 118.283 193.123 119.298 189.937 117.296C186.75 115.296 185.897 111.28 188.019 107.902C190.141 104.522 194.174 103.468 197.362 105.47C200.549 107.47 201.377 111.525 199.256 114.903Z" fill="white"/>
<path d="M295.437 100.502V102.859C293.578 101.046 291.131 99.9574 288.364 99.9574C282.153 99.9574 277.391 105.081 277.391 111.429C277.391 117.776 282.15 122.81 288.364 122.81C291.131 122.81 293.578 121.721 295.437 119.908V122.267H299.88V100.503H295.437V100.502ZM294.425 114.903C292.303 118.283 288.292 119.298 285.106 117.296C281.919 115.296 281.066 111.28 283.188 107.902C285.309 104.522 289.345 103.468 292.531 105.47C295.718 107.47 296.546 111.525 294.425 114.903Z" fill="white"/>
<path d="M222.305 109.288C222.305 107.249 221.852 106.25 221.171 105.524C220.49 104.799 219.448 104.391 218.315 104.391C217.181 104.391 216.139 104.799 215.458 105.524C214.779 106.25 214.324 107.247 214.324 109.288V122.254H209.7V100.491H214.051V102.032C215.275 100.762 217.043 99.9463 219.084 99.9463C221.577 99.9463 223.8 101.125 225.205 102.938C226.701 101.125 229.014 99.9463 231.688 99.9463C234.364 99.9463 236.449 101.125 237.899 103.029C238.897 104.389 239.531 106.112 239.531 108.879V122.254H234.907V109.288C234.907 107.249 234.454 106.25 233.773 105.524C233.092 104.799 232.05 104.391 230.916 104.391C229.783 104.391 228.74 104.799 228.06 105.524C227.38 106.25 226.926 107.247 226.926 109.288V122.254H222.302V109.288H222.305Z" fill="white"/>
<path d="M256.883 109.288C256.883 107.249 256.43 106.25 255.75 105.524C255.069 104.799 254.027 104.391 252.893 104.391C251.759 104.391 250.717 104.799 250.036 105.524C249.357 106.25 248.903 107.247 248.903 109.288V122.254H244.278V100.491H248.63V102.032C249.853 100.762 251.621 99.9463 253.662 99.9463C256.156 99.9463 258.378 101.125 259.783 102.938C261.28 101.125 263.592 99.9463 266.267 99.9463C268.942 99.9463 271.028 101.125 272.478 103.029C273.475 104.389 274.109 106.112 274.109 108.879V122.254H269.485V109.288C269.485 107.249 269.032 106.25 268.351 105.524C267.67 104.799 266.628 104.391 265.495 104.391C264.361 104.391 263.319 104.799 262.638 105.524C261.959 106.25 261.504 107.247 261.504 109.288V122.254H256.88V109.288H256.883Z" fill="white"/>
<path d="M321.839 86.9884H326.463V122.263H321.839V86.9884Z" fill="white"/>
<path d="M157.058 100.502V102.859C155.199 101.046 152.752 99.9574 149.985 99.9574C143.774 99.9574 139.012 104.99 139.012 111.339C139.012 117.688 143.773 122.81 149.985 122.81C152.705 122.81 155.154 121.766 156.967 119.998V122.265C156.967 125.986 154.65 128.791 151.195 129.249C148.496 129.606 145.53 128.834 143.639 127.28C143.411 127.091 143.201 126.891 143.008 126.683L140.58 130.636C140.64 130.687 140.699 130.738 140.757 130.787C143.155 132.758 146.517 133.873 149.868 133.873C150.511 133.873 151.153 133.833 151.789 133.747C157.511 132.992 161.498 128.268 161.498 122.265V100.502H157.055H157.058ZM150.439 118.365C146.676 118.365 143.821 115.327 143.821 111.339C143.821 107.35 146.677 104.4 150.439 104.4C154.201 104.4 157.058 107.392 157.058 111.384C157.058 115.375 154.201 118.365 150.439 118.365Z" fill="white"/>
<path d="M347.304 100.425L340.451 115.97L334.132 100.425H329.494L338.038 121.445L332.647 133.673H337.344L340.292 126.987L342.705 121.512L352 100.425H347.304Z" fill="white"/>
<path d="M180.631 101.029C179.026 100.322 177.261 100.028 175.532 100.381C174 100.696 172.58 101.467 171.476 102.572C171.248 102.8 171.023 103.025 170.84 103.298V100.486H166.489V122.25H171.113V111.413C171.113 108.875 171.749 107.423 172.789 106.381C173.878 105.292 175.373 104.658 177.098 104.658C177.633 104.658 179.013 104.808 180.509 105.777L182.707 102.197C182.054 101.748 181.356 101.349 180.631 101.029Z" fill="white"/>
<path d="M313.914 100.346C312.381 100.661 310.961 101.432 309.858 102.537C309.63 102.765 309.403 102.99 309.22 103.261V100.45H304.869V122.214H309.495V111.377C309.495 108.838 310.129 107.387 311.171 106.344C312.26 105.256 313.753 104.621 315.479 104.621C316.014 104.621 317.286 104.633 318.878 105.251V100.946C317.31 100.28 315.596 99.9985 313.914 100.343V100.346Z" fill="white"/>
<path d="M52 110.345C52 92.478 66.4792 77.9988 84.3458 77.9988C102.212 77.9988 116.689 92.478 116.689 110.345C116.689 125.976 105.607 139.014 90.8686 142.032C88.7632 142.464 86.5816 142.688 84.3548 142.688H52V110.343V110.345Z" fill="#027E6F"/>
<path d="M106.727 107.28H92.1518L88.7194 113.226H100.738C98.8546 123.566 87.355 130.606 75.8628 124.652C73.3916 123.373 71.3792 121.395 70.0792 118.924C63.4679 106.337 72.4994 93.6736 84.4174 93.6736C89.3312 93.6736 93.7564 95.8254 96.7958 99.2367L99.8759 93.9015C95.4884 89.7479 89.4318 87.3292 82.828 87.794C71.5847 88.5693 62.4692 97.8887 61.9219 109.143C61.2981 122.064 71.6267 132.769 84.4099 132.769C97.1931 132.769 106.93 122.663 106.93 110.248C106.93 109.238 106.853 108.249 106.725 107.28H106.727Z" fill="white"/>
</g>
<defs>
<clipPath id="clip0_9222_15874">
<rect width="300" height="64.7971" fill="white" transform="translate(52 78)"/>
</clipPath>
</defs>
</svg>
